#Comment line ignore any data following # character 
#Hierarchical Translation and Rotation (.htr) file 
[Header]	
#Header keywords are followed by a single value 
FileType HTR		#Single word string
DataType HTRS		#Translation followed by rotation and scale data
FileVersion 1		#integer
NumSegments 64		#integer
NumFrames 3		#integer
DataFrameRate 30		#integer, data frame rate in this file
EulerRotationOrder ZYX
CalibrationUnits mm
RotationUnits Degrees
GlobalAxisofGravity Y
BoneLengthAxis Y
ScaleFactor 1.00
[SegmentNames&Hierarchy]
#CHILD	PARENT
Pinger_Root GLOBAL
Pelvis Pinger_Root
L_Hip Pelvis
R_Hip Pelvis
Rear_Leg01 Pelvis
Spine1 Pelvis
L_Leg01 L_Hip
L_Leg02 L_Leg01
L_Leg03 L_Leg02
L_Foot L_Leg03
L_Toe1_01 L_Foot
L_Toe2_01 L_Foot
L_Toe3_01 L_Foot
planeAlignerLeft L_Foot
L_Toe1_02 L_Toe1_01
L_Toe1_03 L_Toe1_02
L_Toe2_02 L_Toe2_01
L_Toe2_03 L_Toe2_02
L_Toe3_02 L_Toe3_01
L_Toe3_03 L_Toe3_02
planeLockWeightLeft planeAlignerLeft
R_Leg01 R_Hip
R_Leg02 R_Leg01
R_Leg03 R_Leg02
R_Foot R_Leg03
planeAlignerRight R_Foot
R_Toe1_01 R_Foot
R_Toe2_01 R_Foot
R_Toe3_01 R_Foot
planeLockWeightRight planeAlignerRight
R_Toe1_02 R_Toe1_01
R_Toe1_03 R_Toe1_02
R_Toe2_02 R_Toe2_01
R_Toe2_03 R_Toe2_02
R_Toe3_02 R_Toe3_01
R_Toe3_03 R_Toe3_02
Rear_Leg02 Rear_Leg01
Rear_Leg03 Rear_Leg02
Rear_Leg04 Rear_Leg03
Rear_Foot Rear_Leg04
planeAlignerCenter Rear_Foot
Rear_Toe1_01 Rear_Foot
Rear_Toe2_01 Rear_Foot
Rear_Toe3_01 Rear_Foot
planeLockWeightCenter planeAlignerCenter
Rear_Toe1_02 Rear_Toe1_01
Rear_Toe1_03 Rear_Toe1_02
Rear_Toe2_02 Rear_Toe2_01
Rear_Toe2_03 Rear_Toe2_02
Rear_Toe3_02 Rear_Toe3_01
Rear_Toe3_03 Rear_Toe3_02
Back_Bone Spine1
Head Spine1
Motor_Bone Back_Bone
Ping_Mechanism Back_Bone
BN_LookIK Head
bottomMouth Head
L_Mouth01 Head
L_mouthFront Head
mouthGun Head
R_Mouth01 Head
R_mouthFront Head
TopMouth Head
weapon_bone Head
[BasePosition]
#SegmentName Tx, Ty, Tz, Rx, Ry, Rz, BoneLength
Pinger_Root 0.000000 0.000000 0.000000 -90.000000 0.000000 0.000000 10.000000 
Pelvis 0.000000 0.000000 0.000000 0.000000 0.000000 0.000000 10.000000 
L_Hip 0.000000 0.000000 0.000000 0.000000 0.000000 0.000000 10.000000 
R_Hip 0.000000 0.000000 0.000000 0.000000 0.000000 0.000000 10.000000 
Rear_Leg01 0.000000 0.000000 0.000000 0.000000 0.000000 0.000000 10.000000 
Spine1 0.000000 0.000000 0.000000 0.000000 0.000000 0.000000 10.000000 
L_Leg01 0.000000 0.000000 0.000000 0.000000 0.000000 0.000000 10.000000 
L_Leg02 0.000000 0.000000 0.000000 0.000000 0.000000 0.000000 10.000000 
L_Leg03 0.000000 0.000000 0.000000 0.000000 0.000000 0.000000 10.000000 
L_Foot 0.000000 0.000000 0.000000 0.000000 0.000000 0.000000 10.000000 
L_Toe1_01 0.000000 0.000000 0.000000 0.000000 0.000000 0.000000 10.000000 
L_Toe2_01 0.000000 0.000000 0.000000 0.000000 0.000000 0.000000 10.000000 
L_Toe3_01 0.000000 0.000000 0.000000 0.000000 0.000000 0.000000 10.000000 
planeAlignerLeft 0.000000 0.000000 0.000000 0.000000 0.000000 0.000000 10.000000 
L_Toe1_02 0.000000 0.000000 0.000000 0.000000 0.000000 0.000000 10.000000 
L_Toe1_03 0.000000 0.000000 0.000000 0.000000 0.000000 0.000000 10.000000 
L_Toe2_02 0.000000 0.000000 0.000000 0.000000 0.000000 0.000000 10.000000 
L_Toe2_03 0.000000 0.000000 0.000000 0.000000 0.000000 0.000000 10.000000 
L_Toe3_02 0.000000 0.000000 0.000000 0.000000 0.000000 0.000000 10.000000 
L_Toe3_03 0.000000 0.000000 0.000000 0.000000 0.000000 0.000000 10.000000 
planeLockWeightLeft 0.000000 0.000000 0.000000 0.000000 0.000000 0.000000 10.000000 
R_Leg01 0.000000 0.000000 0.000000 0.000000 0.000000 0.000000 10.000000 
R_Leg02 0.000000 0.000000 0.000000 0.000000 0.000000 0.000000 10.000000 
R_Leg03 0.000000 0.000000 0.000000 0.000000 0.000000 0.000000 10.000000 
R_Foot 0.000000 0.000000 0.000000 0.000000 0.000000 0.000000 10.000000 
planeAlignerRight 0.000000 0.000000 0.000000 0.000000 0.000000 0.000000 10.000000 
R_Toe1_01 0.000000 0.000000 0.000000 0.000000 0.000000 0.000000 10.000000 
R_Toe2_01 0.000000 0.000000 0.000000 0.000000 0.000000 0.000000 10.000000 
R_Toe3_01 0.000000 0.000000 0.000000 0.000000 0.000000 0.000000 10.000000 
planeLockWeightRight 0.000000 0.000000 0.000000 0.000000 0.000000 0.000000 10.000000 
R_Toe1_02 0.000000 0.000000 0.000000 0.000000 0.000000 0.000000 10.000000 
R_Toe1_03 0.000000 0.000000 0.000000 0.000000 0.000000 0.000000 10.000000 
R_Toe2_02 0.000000 0.000000 0.000000 0.000000 0.000000 0.000000 10.000000 
R_Toe2_03 0.000000 0.000000 0.000000 0.000000 0.000000 0.000000 10.000000 
R_Toe3_02 0.000000 0.000000 0.000000 0.000000 0.000000 0.000000 10.000000 
R_Toe3_03 0.000000 0.000000 0.000000 0.000000 0.000000 0.000000 10.000000 
Rear_Leg02 0.000000 0.000000 0.000000 0.000000 0.000000 0.000000 10.000000 
Rear_Leg03 0.000000 0.000000 0.000000 0.000000 0.000000 0.000000 10.000000 
Rear_Leg04 0.000000 0.000000 0.000000 0.000000 0.000000 0.000000 10.000000 
Rear_Foot 0.000000 0.000000 0.000000 0.000000 0.000000 0.000000 10.000000 
planeAlignerCenter 0.000000 0.000000 0.000000 0.000000 0.000000 0.000000 10.000000 
Rear_Toe1_01 0.000000 0.000000 0.000000 0.000000 0.000000 0.000000 10.000000 
Rear_Toe2_01 0.000000 0.000000 0.000000 0.000000 0.000000 0.000000 10.000000 
Rear_Toe3_01 0.000000 0.000000 0.000000 0.000000 0.000000 0.000000 10.000000 
planeLockWeightCenter 0.000000 0.000000 0.000000 0.000000 0.000000 0.000000 10.000000 
Rear_Toe1_02 0.000000 0.000000 0.000000 0.000000 0.000000 0.000000 10.000000 
Rear_Toe1_03 0.000000 0.000000 0.000000 0.000000 0.000000 0.000000 10.000000 
Rear_Toe2_02 0.000000 0.000000 0.000000 0.000000 0.000000 0.000000 10.000000 
Rear_Toe2_03 0.000000 0.000000 0.000000 0.000000 0.000000 0.000000 10.000000 
Rear_Toe3_02 0.000000 0.000000 0.000000 0.000000 0.000000 0.000000 10.000000 
Rear_Toe3_03 0.000000 0.000000 0.000000 0.000000 0.000000 0.000000 10.000000 
Back_Bone 0.000000 0.000000 0.000000 0.000000 0.000000 0.000000 10.000000 
Head 0.000000 0.000000 0.000000 0.000000 0.000000 0.000000 10.000000 
Motor_Bone 0.000000 0.000000 0.000000 0.000000 0.000000 0.000000 10.000000 
Ping_Mechanism 0.000000 0.000000 0.000000 0.000000 0.000000 0.000000 10.000000 
BN_LookIK 0.000000 0.000000 0.000000 0.000000 0.000000 0.000000 10.000000 
bottomMouth 0.000000 0.000000 0.000000 0.000000 0.000000 0.000000 10.000000 
L_Mouth01 0.000000 0.000000 0.000000 0.000000 0.000000 0.000000 10.000000 
L_mouthFront 0.000000 0.000000 0.000000 0.000000 0.000000 0.000000 10.000000 
mouthGun 0.000000 0.000000 0.000000 0.000000 0.000000 0.000000 10.000000 
R_Mouth01 0.000000 0.000000 0.000000 0.000000 0.000000 0.000000 10.000000 
R_mouthFront 0.000000 0.000000 0.000000 0.000000 0.000000 0.000000 10.000000 
TopMouth 0.000000 0.000000 0.000000 0.000000 0.000000 0.000000 10.000000 
weapon_bone 0.000000 0.000000 0.000000 0.000000 0.000000 0.000000 10.000000 
#Beginning of Data. Separated by tabs
#Fr	Tx	Ty	Tz	Rx	Ry	Rz	SF
[Pinger_Root]
71 -0.000020 2500.000000 0.000000 -0.000075 -0.000000 -0.000020 2500.000000
72 -0.000020 2500.000000 0.000000 -0.000075 -0.000000 -0.000020 2500.000000
73 -0.000020 2500.000000 0.000000 -0.000075 -0.000000 -0.000020 2500.000000
[Pelvis]
71 90.520149 876.701294 4390.604492 -78.220573 -78.087563 72.336288 4478.192383
72 86.891060 880.684814 4402.696777 -80.111153 -79.901939 73.738235 4490.756348
73 83.262001 884.668396 4414.788574 -82.652084 -81.292953 75.972313 4503.324219
[L_Hip]
71 5.766392 125.831482 872.656799 159.774231 -50.660999 119.947128 881.701050
72 5.766392 125.831482 872.656799 159.813553 -49.741684 120.368080 881.701050
73 5.766392 125.831482 872.656799 159.862381 -48.822739 120.782181 881.701050
[R_Hip]
71 5.765438 125.836372 -872.654907 37.644581 54.555107 124.806091 881.699829
72 5.765438 125.836372 -872.654907 37.743729 53.773724 124.967545 881.699829
73 5.765438 125.836372 -872.654907 37.837379 52.992168 125.123764 881.699829
[Rear_Leg01]
71 -192.298416 -925.602966 -0.001907 176.296753 5.391083 -157.356995 945.367432
72 -192.298416 -925.602966 -0.001907 175.553528 5.123713 -156.711502 945.367432
73 -192.298416 -925.602966 -0.001907 174.962708 4.730249 -156.528763 945.367432
[Spine1]
71 290.604584 5.007505 0.000477 4.439785 -3.211049 12.184901 290.647736
72 290.604584 5.007505 0.000477 5.125410 -2.687443 13.775970 290.647736
73 290.604584 5.007505 0.000477 5.626014 -2.172754 14.992925 290.647736
[L_Leg01]
71 761.932007 -0.002384 -0.069261 20.467352 -22.840534 -17.313253 761.932068
72 761.932007 -0.002384 -0.069261 21.160610 -20.940508 -16.572037 761.932068
73 761.932007 -0.002384 -0.069261 21.636499 -19.602785 -15.486506 761.932068
[L_Leg02]
71 1441.140503 -0.000954 -0.000715 2.172170 -0.086862 -117.392265 1441.140503
72 1441.140503 -0.000954 -0.000715 2.233833 -0.091398 -118.896996 1441.140503
73 1441.140503 -0.000954 -0.000715 2.297969 -0.102872 -120.532455 1441.140503
[L_Leg03]
71 1686.963989 -0.000715 -0.000954 -0.037168 0.017527 120.884499 1686.963989
72 1686.963989 -0.000715 -0.000954 -0.036346 0.017248 120.739098 1686.963989
73 1686.963989 -0.000715 -0.000954 -0.035551 0.016919 120.422783 1686.963989
[L_Foot]
71 3041.570068 -30.715107 11.297464 1.504544 11.997568 48.301464 3041.746094
72 3041.570068 -30.715107 11.297464 1.571906 12.180687 49.323376 3041.746094
73 3041.570068 -30.715107 11.297464 1.642648 12.362600 50.346203 3041.746094
[L_Toe1_01]
71 -188.216690 -224.732346 -21.137953 93.168121 -6.284743 -172.169739 293.899567
72 -188.216690 -224.732346 -21.137953 93.260963 -6.374612 -172.182404 293.899567
73 -188.216690 -224.732346 -21.137953 93.353813 -6.464456 -172.195206 293.899567
[L_Toe2_01]
71 200.746536 -219.926590 148.838394 -88.970123 -24.731068 -49.339409 332.896027
72 200.746536 -219.926590 148.838394 -89.193787 -25.032532 -49.884258 332.896027
73 200.746536 -219.926590 148.838394 -89.414795 -25.335865 -50.429073 332.896027
[L_Toe3_01]
71 188.832520 -219.859131 -191.078659 -100.825821 16.273598 -62.526176 347.140900
72 188.832520 -219.859131 -191.078659 -100.665939 15.872893 -63.346481 347.140900
73 188.832520 -219.859131 -191.078659 -100.500427 15.474441 -64.166351 347.140900
[planeAlignerLeft]
71 46.971806 -564.540039 83.003624 169.280319 -78.328247 91.547165 572.539429
72 45.052803 -568.500610 85.606636 169.290421 -78.006897 91.291504 576.672546
73 43.133801 -572.461243 88.209602 169.293518 -77.685440 91.042625 580.821289
[L_Toe1_02]
71 413.761139 0.000477 0.000000 0.001384 -25.953226 0.001384 413.761139
72 413.761139 0.000477 0.000000 0.001384 -25.959196 0.001384 413.761139
73 413.761139 0.000477 0.000000 0.001384 -25.965166 0.001384 413.761139
[L_Toe1_03]
71 464.317322 0.000358 -0.000089 0.004001 55.882229 0.004001 464.317322
72 464.317322 0.000358 -0.000089 0.003968 55.586926 0.003968 464.317322
73 464.317322 0.000358 -0.000089 0.003935 55.291607 0.003935 464.317322
[L_Toe2_02]
71 342.235809 -0.000477 0.000238 0.001186 -73.573570 0.001186 342.235809
72 342.235809 -0.000477 0.000238 0.001186 -73.421967 0.001186 342.235809
73 342.235809 -0.000477 0.000238 0.001186 -73.270340 0.001186 342.235809
[L_Toe2_03]
71 420.210846 -0.000715 0.000000 -0.040869 88.316116 -0.037371 420.210846
72 420.210846 -0.000715 0.000000 -0.032233 87.838882 -0.028735 420.210846
73 420.210846 -0.000715 0.000000 -0.026720 87.361961 -0.023222 420.210846
[L_Toe3_02]
71 329.270111 0.000954 0.000000 0.001177 -81.580162 0.001177 329.270111
72 329.270111 0.000954 0.000000 0.001177 -81.459442 0.001177 329.270111
73 329.270111 0.000954 0.000000 0.001177 -81.338623 0.001177 329.270111
[L_Toe3_03]
71 439.137451 -0.001907 0.000954 -179.997620 74.081848 -179.994080 439.137451
72 439.137451 -0.001907 0.000954 -179.997437 74.752640 -179.993896 439.137451
73 439.137451 -0.001907 0.000954 -179.997238 75.423309 -179.993713 439.137451
[planeLockWeightLeft]
71 1000.000366 -0.000140 -0.000098 -0.011826 -0.004376 0.005620 1000.000366
72 1000.000366 -0.000157 -0.000098 -0.011826 -0.004376 0.005620 1000.000366
73 1000.000366 -0.000173 -0.000097 -0.011826 -0.004376 0.005620 1000.000366
[R_Leg01]
71 761.455627 -0.001907 -0.000358 128.254974 -14.871545 29.590607 761.455688
72 761.455627 -0.001907 -0.000358 126.576218 -13.247970 31.380650 761.455688
73 761.455627 -0.001907 -0.000358 125.196358 -11.882965 32.849186 761.455688
[R_Leg02]
71 1441.140625 0.000000 -0.000238 -1.760873 -0.439619 -124.372025 1441.140625
72 1441.140625 0.000000 -0.000238 -1.645759 -0.364033 -122.159683 1441.140625
73 1441.140625 0.000000 -0.000238 -1.553807 -0.310629 -120.538986 1441.140625
[R_Leg03]
71 1686.963989 0.000954 0.001431 0.092297 -0.054202 135.827576 1686.963989
72 1686.963989 0.000954 0.001431 0.087393 -0.051097 134.745270 1686.963989
73 1686.963989 0.000954 0.001431 0.085556 -0.049673 134.022598 1686.963989
[R_Foot]
71 3041.560059 -30.531288 -11.204481 -1.661781 -18.770611 54.963573 3041.734131
72 3041.560059 -30.531288 -11.204481 -1.552194 -19.623013 54.814156 3041.734131
73 3041.560059 -30.531288 -11.204481 -1.439635 -20.475185 54.662193 3041.734131
[planeAlignerRight]
71 -127.150269 -574.018188 -312.905914 -36.583759 -71.418259 -64.296967 666.013611
72 -127.150101 -574.018250 -312.905609 -36.583092 -71.410309 -64.301643 666.013489
73 -127.149956 -574.018311 -312.905334 -36.582417 -71.402405 -64.306396 666.013428
[R_Toe1_01]
71 -188.383347 -224.864899 21.052242 76.129715 -0.475512 -172.714188 294.101532
72 -188.383347 -224.864899 21.052242 76.193108 -0.469428 -172.715668 294.101532
73 -188.383347 -224.864899 21.052242 76.256485 -0.463341 -172.717148 294.101532
[R_Toe2_01]
71 200.637817 -220.002121 -148.787384 -93.227234 32.390125 -59.160286 332.857574
72 200.637817 -220.002121 -148.787384 -92.984459 32.469147 -59.165039 332.857574
73 200.637817 -220.002121 -148.787384 -92.741470 32.548161 -59.169376 332.857574
[R_Toe3_01]
71 188.606735 -220.092957 191.126343 -72.146530 -8.144753 -73.643463 347.192566
72 188.606735 -220.092957 191.126343 -72.335548 -8.183798 -73.663757 347.192566
73 188.606735 -220.092957 191.126343 -72.524590 -8.222907 -73.683922 347.192566
[planeLockWeightRight]
71 1000.000000 0.000305 -0.000437 -0.011823 -0.004379 -0.000027 1000.000000
72 1000.000000 0.000305 -0.000437 -0.011823 -0.004379 -0.000027 1000.000000
73 1000.000000 0.000305 -0.000437 -0.011823 -0.004379 -0.000027 1000.000000
[R_Toe1_02]
71 413.762085 0.000477 -0.000119 0.001394 -24.665104 0.001394 413.762085
72 413.762085 0.000477 -0.000119 0.001394 -24.664541 0.001394 413.762085
73 413.762085 0.000477 -0.000119 0.001394 -24.663980 0.001394 413.762085
[R_Toe1_03]
71 464.317810 0.000000 0.001088 0.006616 69.563271 0.006616 464.317810
72 464.317810 0.000000 0.001088 0.006617 69.566254 0.006617 464.317810
73 464.317810 0.000000 0.001088 0.006618 69.569290 0.006618 464.317810
[R_Toe2_02]
71 342.234741 -0.000954 0.000238 0.001197 -67.221245 0.001197 342.234741
72 342.234741 -0.000954 0.000238 0.001197 -67.221245 0.001197 342.234741
73 342.234741 -0.000954 0.000238 0.001197 -67.221245 0.001197 342.234741
[R_Toe2_03]
71 420.210846 0.000715 -0.000268 0.008220 73.582336 0.008220 420.210846
72 420.210846 0.000715 -0.000268 0.008231 73.605881 0.008231 420.210846
73 420.210846 0.000715 -0.000268 0.008232 73.606583 0.008232 420.210846
[R_Toe3_02]
71 329.270355 -0.000477 -0.000954 0.001184 -74.470352 0.001184 329.270355
72 329.270355 -0.000477 -0.000954 0.001184 -74.475197 0.001184 329.270355
73 329.270355 -0.000477 -0.000954 0.001184 -74.480011 0.001184 329.270355
[R_Toe3_03]
71 439.137939 0.000238 0.001431 -0.011428 83.190063 -0.007925 439.137939
72 439.137939 0.000238 0.001431 -0.011444 83.201073 -0.007941 439.137939
73 439.137939 0.000238 0.001431 -0.011460 83.212128 -0.007957 439.137939
[Rear_Leg02]
71 1162.777710 -0.029802 0.005960 -0.145555 -2.342173 -95.896004 1162.777710
72 1162.777710 -0.029802 0.005960 -0.126681 -2.487454 -98.207001 1162.777710
73 1162.777710 -0.029802 0.005960 -0.101956 -2.631854 -100.518318 1162.777710
[Rear_Leg03]
71 607.192505 -0.013351 -0.073195 0.006580 -0.001758 58.130978 607.192505
72 607.192505 -0.013351 -0.073195 0.006575 -0.001776 58.437489 607.192505
73 607.192505 -0.013351 -0.073195 0.006570 -0.001793 58.743973 607.192505
[Rear_Leg04]
71 995.874512 -0.020504 -0.011921 -0.038001 -0.017353 46.671360 995.874573
72 995.874512 -0.020504 -0.011921 -0.038470 -0.018096 47.163227 995.874573
73 995.874512 -0.020504 -0.011921 -0.038946 -0.018834 47.655079 995.874573
[Rear_Foot]
71 3096.176270 -0.067472 -0.041425 -123.847038 87.670982 70.939896 3096.176270
72 3096.176270 -0.067472 -0.041425 -121.917755 87.601181 73.042046 3096.176270
73 3096.176270 -0.067472 -0.041425 -120.104492 87.528915 75.028580 3096.176270
[planeAlignerCenter]
71 -7.439367 -134.601669 -625.055054 10.585888 -0.001500 179.998184 639.426941
72 -7.472278 -140.824341 -638.341919 10.816942 -0.001496 179.998184 653.733704
73 -7.180093 -140.611282 -652.171082 11.047997 -0.001492 179.998184 667.195740
[Rear_Toe1_01]
71 0.653352 83.966492 -371.173737 0.521016 26.133341 90.899132 380.553192
72 0.653352 83.966492 -371.173737 0.542965 27.496466 90.911858 380.553192
73 0.653352 83.966492 -371.173737 0.565522 28.858431 90.925339 380.553192
[Rear_Toe2_01]
71 178.200760 -294.826019 -362.060547 -7.079000 25.291590 -69.015831 499.765686
72 178.200760 -294.826019 -362.060547 -7.269424 25.360722 -69.168526 499.765686
73 178.200760 -294.826019 -362.060547 -7.422671 25.763655 -69.193787 499.765686
[Rear_Toe3_01]
71 -153.359680 -308.780914 -362.060852 3.304105 23.055933 -110.759026 499.952881
72 -153.359680 -308.780914 -362.060852 3.403192 22.972427 -110.612473 499.952881
73 -153.359680 -308.780914 -362.060852 3.468598 23.385942 -110.594231 499.952881
[planeLockWeightCenter]
71 1000.000122 0.000305 -0.000130 -0.011814 -0.004373 -0.000015 1000.000122
72 1000.000122 0.000305 -0.000124 -0.011814 -0.004373 -0.000015 1000.000122
73 1000.000122 0.000305 -0.000118 -0.011814 -0.004373 -0.000015 1000.000122
[Rear_Toe1_02]
71 379.707825 0.194073 0.000477 -0.002649 -32.563015 -0.002649 379.707855
72 379.707825 0.194073 0.000477 -0.002648 -32.637211 -0.002648 379.707855
73 379.707825 0.194073 0.000477 -0.002647 -32.711399 -0.002647 379.707855
[Rear_Toe1_03]
71 500.129700 0.165701 0.000119 -179.972931 87.399467 -179.976425 500.129761
72 500.129700 0.165701 0.000119 -179.966614 87.917946 -179.970123 500.129761
73 500.129700 0.165701 0.000119 0.000000 89.445740 -0.003491 500.129761
[Rear_Toe2_02]
71 340.494507 0.000238 -0.000954 0.001231 -54.977459 0.001231 340.494507
72 340.494507 0.000238 -0.000954 0.001235 -53.837486 0.001235 340.494507
73 340.494507 0.000238 -0.000954 0.001235 -53.781979 0.001235 340.494507
[Rear_Toe2_03]
71 433.103577 0.000000 0.000238 0.003438 50.079266 0.003438 433.103546
72 433.103577 0.000000 0.000238 0.003325 48.668148 0.003325 433.103546
73 433.103577 0.000000 0.000238 0.003321 48.608387 0.003321 433.103546
[Rear_Toe3_02]
71 340.494141 -0.000358 -0.000477 -0.002486 -48.252327 -0.002486 340.494171
72 340.494141 -0.000358 -0.000477 -0.002498 -46.911877 -0.002498 340.494171
73 340.494141 -0.000358 -0.000477 -0.002497 -46.949558 -0.002497 340.494171
[Rear_Toe3_03]
71 433.103577 0.001431 -0.000238 0.000481 42.547348 -0.003338 433.103546
72 433.103577 0.001431 -0.000238 0.000535 41.000217 -0.003307 433.103546
73 433.103577 0.001431 -0.000238 0.000534 41.042397 -0.003308 433.103546
[Back_Bone]
71 1312.175781 -701.934692 0.000954 -1.020291 -3.528540 -86.115685 1488.125488
72 1312.175781 -701.934692 0.000954 -0.851160 -3.488607 -85.964066 1488.125488
73 1312.175781 -701.934692 0.000954 -0.518447 -3.162827 -85.890198 1488.125488
[Head]
71 1406.159424 809.709290 0.001431 0.262850 -1.067612 7.511422 1622.625488
72 1406.159424 809.709290 0.001431 0.205203 -1.150085 7.571876 1622.625488
73 1406.159424 809.709290 0.001431 0.147469 -1.232495 7.632411 1622.625488
[Motor_Bone]
71 1158.364380 -417.834747 0.000477 -5.513447 1.191204 -104.796608 1231.419434
72 1158.364380 -417.834747 0.000477 -3.495623 0.584029 -105.401451 1231.419434
73 1158.364380 -417.834747 0.000477 0.251712 -0.541767 -106.527855 1231.419434
[Ping_Mechanism]
71 1270.222778 -453.679108 13.809576 0.000103 -0.000053 82.120995 1348.881470
72 1261.753174 -451.808502 11.190561 0.000103 -0.000053 82.120995 1340.252686
73 1256.007935 -449.897919 8.623816 0.000103 -0.000053 82.120995 1334.180786
[BN_LookIK]
71 193.241119 1380.371704 -0.002861 0.000000 89.965736 -31.038179 1393.832153
72 193.241119 1380.371704 -0.002861 0.000000 89.965736 -31.038179 1393.832153
73 193.241119 1380.371704 -0.002861 0.000000 89.965736 -31.038179 1393.832153
[bottomMouth]
71 -435.092926 615.759399 -0.000954 -0.000022 0.000016 73.527184 753.966492
72 -435.092926 615.759399 -0.000954 -0.000022 0.000016 73.527184 753.966492
73 -435.092926 615.759399 -0.000954 -0.000022 0.000016 73.527184 753.966492
[L_Mouth01]
71 554.440979 7.658243 838.222046 150.204178 23.759130 109.605339 1005.027161
72 554.440979 7.658243 838.222046 150.204178 23.759130 109.605339 1005.027161
73 554.440979 7.658243 838.222046 150.204178 23.759130 109.605339 1005.027161
[L_mouthFront]
71 551.629089 934.514771 339.150421 0.000081 2.804060 79.119301 1136.941284
72 551.629089 934.514771 339.150421 0.000081 2.804060 79.119301 1136.941284
73 551.629089 934.514771 339.150421 0.000081 2.804060 79.119301 1136.941284
[mouthGun]
71 55.332661 1627.420898 0.000000 0.000023 0.000009 -11.038128 1628.361328
72 55.332661 1627.420898 0.000000 0.000023 0.000009 -11.038128 1628.361328
73 55.332661 1627.420898 0.000000 0.000023 0.000009 -11.038128 1628.361328
[R_Mouth01]
71 554.442383 7.659197 -838.223938 29.795891 -23.759109 109.605331 1005.029541
72 554.442383 7.659197 -838.223938 29.795891 -23.759109 109.605331 1005.029541
73 554.442383 7.659197 -838.223938 29.795891 -23.759109 109.605331 1005.029541
[R_mouthFront]
71 551.629089 934.514282 -339.151367 0.000029 -2.803930 79.119133 1136.941162
72 551.629089 934.514282 -339.151367 0.000029 -2.803930 79.119133 1136.941162
73 551.629089 934.514282 -339.151367 0.000029 -2.803930 79.119133 1136.941162
[TopMouth]
71 461.269867 -56.106091 -0.008583 -0.000059 -0.000268 92.025169 464.669525
72 461.269867 -56.106091 -0.008583 -0.000059 -0.000268 92.025169 464.669525
73 461.269867 -56.106091 -0.008583 -0.000059 -0.000268 92.025169 464.669525
[weapon_bone]
71 -987.239868 1448.372803 0.001431 0.000000 89.965736 -31.038221 1752.833740
72 -987.239868 1448.372803 0.001431 0.000000 89.965736 -31.038221 1752.833740
73 -987.239868 1448.372803 0.001431 0.000000 89.965736 -31.038221 1752.833740
